<svg width="25" height="24" viewBox="0 0 25 24" fill="none" xmlns="http://www.w3.org/2000/svg">
<g clip-path="url(#clip0_1_319)">
<path d="M21.2273 0H3.77273C1.96525 0 0.5 1.46525 0.5 3.27273V20.7273C0.5 22.5347 1.96525 24 3.77273 24H21.2273C23.0347 24 24.5 22.5347 24.5 20.7273V3.27273C24.5 1.46525 23.0347 0 21.2273 0Z" fill="white"/>
<path d="M9.14548 6.54545C9.14548 6.95001 9.02551 7.34547 8.80075 7.68185C8.576 8.01822 8.25654 8.28039 7.88278 8.43521C7.50902 8.59002 7.09775 8.63053 6.70097 8.55161C6.30419 8.47268 5.93973 8.27787 5.65367 7.99181C5.3676 7.70575 5.17279 7.34128 5.09387 6.9445C5.01494 6.54772 5.05545 6.13645 5.21027 5.76269C5.36508 5.38894 5.62725 5.06948 5.96363 4.84472C6.3 4.61996 6.69547 4.5 7.10002 4.5C7.64251 4.5 8.16278 4.7155 8.54638 5.0991C8.92997 5.4827 9.14548 6.00297 9.14548 6.54545ZM8.68184 9.95455V18.9914C8.6822 19.058 8.66938 19.1241 8.64411 19.1858C8.61885 19.2475 8.58164 19.3036 8.53463 19.3509C8.48762 19.3981 8.43172 19.4356 8.37017 19.4612C8.30861 19.4868 8.2426 19.5 8.17593 19.5H6.02002C5.95335 19.5002 5.88731 19.4872 5.82568 19.4618C5.76406 19.4363 5.70806 19.399 5.66092 19.3518C5.61378 19.3047 5.57642 19.2487 5.551 19.1871C5.52557 19.1254 5.51257 19.0594 5.51275 18.9927V9.95455C5.51275 9.82001 5.56619 9.69098 5.66133 9.59585C5.75646 9.50072 5.88548 9.44727 6.02002 9.44727H8.17593C8.31023 9.44763 8.43891 9.50124 8.53375 9.59633C8.62858 9.69142 8.68184 9.82024 8.68184 9.95455ZM19.9509 14.6591V19.0336C19.9511 19.0949 19.9392 19.1557 19.9158 19.2123C19.8924 19.269 19.8581 19.3205 19.8147 19.3638C19.7714 19.4071 19.7199 19.4415 19.6632 19.4649C19.6066 19.4882 19.5459 19.5002 19.4846 19.5H17.1664C17.1051 19.5002 17.0444 19.4882 16.9877 19.4649C16.931 19.4415 16.8796 19.4071 16.8362 19.3638C16.7929 19.3205 16.7585 19.269 16.7352 19.2123C16.7118 19.1557 16.6998 19.0949 16.7 19.0336V14.7941C16.7 14.1614 16.8855 12.0232 15.0459 12.0232C13.6209 12.0232 13.3305 13.4864 13.2732 14.1436V19.0336C13.2732 19.1562 13.225 19.2738 13.139 19.361C13.053 19.4483 12.9362 19.4982 12.8137 19.5H10.5746C10.5134 19.5 10.4528 19.4879 10.3963 19.4645C10.3398 19.441 10.2885 19.4066 10.2453 19.3633C10.2021 19.32 10.1679 19.2686 10.1446 19.212C10.1213 19.1554 10.1094 19.0948 10.1096 19.0336V9.915C10.1094 9.85382 10.1213 9.79321 10.1446 9.73663C10.1679 9.68006 10.2021 9.62864 10.2453 9.58531C10.2885 9.54199 10.3398 9.50762 10.3963 9.48416C10.4528 9.46071 10.5134 9.44864 10.5746 9.44864H12.8137C12.9373 9.44864 13.056 9.49777 13.1434 9.58523C13.2309 9.67269 13.28 9.79131 13.28 9.915V10.7032C13.8091 9.90955 14.5932 9.29727 16.2664 9.29727C19.9727 9.29727 19.9509 12.7582 19.9509 14.6591Z" fill="#090F1D"/>
</g>
<defs>
<clipPath id="clip0_1_319">
<rect width="24" height="24" fill="white" transform="translate(0.5)"/>
</clipPath>
</defs>
</svg>
