<svg width="25" height="24" viewBox="0 0 25 24" fill="none" xmlns="http://www.w3.org/2000/svg">
<g clip-path="url(#clip0_1_309)">
<path d="M21.2273 0H3.77273C1.96525 0 0.5 1.46525 0.5 3.27273V20.7273C0.5 22.5347 1.96525 24 3.77273 24H21.2273C23.0347 24 24.5 22.5347 24.5 20.7273V3.27273C24.5 1.46525 23.0347 0 21.2273 0Z" fill="white"/>
<path d="M19.0373 6.20455L18.7891 6.29455L5.31912 11.1477C5.22366 11.1772 5.1407 11.2376 5.08323 11.3193C5.02576 11.4011 4.99704 11.4996 5.00156 11.5994C5.00608 11.6992 5.0436 11.7947 5.10822 11.8709C5.17285 11.9471 5.26093 11.9997 5.35866 12.0205L8.84548 12.975L9.49594 14.8841L10.1464 16.7932C10.1838 16.8868 10.2434 16.9698 10.3201 17.0351C10.3969 17.1004 10.4884 17.146 10.5868 17.1679C10.6851 17.1898 10.7874 17.1874 10.8846 17.1608C10.9818 17.1342 11.071 17.0843 11.1446 17.0155L12.9459 15.3136L16.4832 17.7123C16.9155 18.0068 17.5318 17.7886 17.6423 17.3032L19.985 6.95182C20.0996 6.43909 19.5596 6.01773 19.0373 6.20455ZM17.3178 8.50227L11.2318 13.4768L10.9455 13.7114C10.8826 13.7612 10.8415 13.8336 10.8309 13.9132L10.7668 14.4423L10.5909 15.9286C10.5924 15.9467 10.5866 15.9646 10.5748 15.9784C10.5631 15.9923 10.5463 16.0008 10.5282 16.0023C10.5101 16.0037 10.4922 15.9979 10.4784 15.9862C10.4646 15.9744 10.456 15.9576 10.4546 15.9395L9.95957 14.4545L9.44821 12.9341C9.42658 12.8657 9.42945 12.792 9.45634 12.7255C9.48322 12.6591 9.53242 12.6041 9.59548 12.57L15.9282 8.94L17.12 8.25818C17.2932 8.15727 17.4705 8.37682 17.3178 8.50227Z" fill="#090F1D"/>
</g>
<defs>
<clipPath id="clip0_1_309">
<rect width="24" height="24" fill="white" transform="translate(0.5)"/>
</clipPath>
</defs>
</svg>
