<svg width="25" height="24" viewBox="0 0 25 24" fill="none" xmlns="http://www.w3.org/2000/svg">
<g clip-path="url(#clip0_1_314)">
<path d="M21.2273 0H3.77273C1.96525 0 0.5 1.46525 0.5 3.27273V20.7273C0.5 22.5347 1.96525 24 3.77273 24H21.2273C23.0347 24 24.5 22.5347 24.5 20.7273V3.27273C24.5 1.46525 23.0347 0 21.2273 0Z" fill="white"/>
<path d="M19.9714 7.46047C19.6154 7.9923 19.182 8.468 18.6855 8.87183C18.6211 8.92305 18.5691 8.98817 18.5335 9.06232C18.4978 9.13647 18.4794 9.21773 18.4796 9.30001V9.35047C18.4739 10.4221 18.2772 11.4842 17.8987 12.4868C17.5087 13.5377 16.9296 14.5083 16.19 15.3505C15.2006 16.4784 13.9261 17.3196 12.5 17.7859C11.5603 18.0909 10.5779 18.2437 9.59002 18.2386C8.02545 18.237 6.48908 17.8221 5.13639 17.0359C5.08795 17.0084 5.04986 16.9658 5.02794 16.9145C5.00603 16.8633 5.00149 16.8063 5.01502 16.7523C5.02874 16.6988 5.05996 16.6515 5.10371 16.6179C5.14746 16.5843 5.20122 16.5663 5.25639 16.5668H5.63002C6.81924 16.5666 7.98126 16.211 8.96684 15.5455C8.37933 15.4494 7.8296 15.1935 7.37788 14.8058C6.92616 14.4181 6.58989 13.9135 6.40593 13.3473C6.39691 13.3194 6.3953 13.2896 6.40126 13.2609C6.40723 13.2321 6.42056 13.2055 6.43996 13.1835C6.45935 13.1615 6.48414 13.1449 6.51189 13.1353C6.53963 13.1258 6.56938 13.1237 6.5982 13.1291C6.77802 13.1633 6.96063 13.1806 7.14366 13.1809H7.21184C6.6424 12.9193 6.16097 12.4982 5.82579 11.9687C5.49061 11.4392 5.31604 10.8239 5.3232 10.1973C5.32359 10.1679 5.33158 10.1391 5.34639 10.1137C5.36119 10.0883 5.38232 10.0672 5.40771 10.0523C5.4331 10.0375 5.46189 10.0295 5.49129 10.0291C5.52068 10.0287 5.54969 10.0359 5.57548 10.05C5.80652 10.179 6.05433 10.2754 6.31184 10.3364C5.80191 9.83224 5.47371 9.17313 5.3787 8.46239C5.28369 7.75165 5.42724 7.02948 5.78684 6.4091C5.80064 6.38624 5.81965 6.36697 5.84232 6.35287C5.865 6.33877 5.89069 6.33024 5.91729 6.32798C5.9439 6.32572 5.97066 6.32979 5.99539 6.33986C6.02012 6.34993 6.04211 6.36572 6.05957 6.38592C6.77375 7.26878 7.65803 7.99916 8.6599 8.53371C9.66178 9.06826 10.7608 9.39609 11.8918 9.49774H11.9041C11.9209 9.49719 11.9373 9.49329 11.9526 9.48626C11.9678 9.47923 11.9815 9.46923 11.9927 9.45683C12.0036 9.44443 12.0118 9.4299 12.0167 9.41416C12.0216 9.39843 12.0232 9.38185 12.0214 9.36547C11.9792 8.96945 12.005 8.56913 12.0978 8.18183C12.179 7.84276 12.3174 7.51998 12.5068 7.22728C12.9045 6.60277 13.5102 6.13905 14.2168 5.91819C14.5483 5.81427 14.8936 5.76094 15.2409 5.76001C16.0287 5.75923 16.7896 6.04633 17.3805 6.56728C17.4558 6.63419 17.5525 6.67193 17.6532 6.67365C17.6864 6.6731 17.7193 6.66852 17.7514 6.66001C18.3069 6.51947 18.8392 6.29948 19.3318 6.00683C19.3615 5.9897 19.3956 5.9819 19.4298 5.98444C19.4639 5.98699 19.4965 5.99977 19.5233 6.02111C19.5501 6.04245 19.5698 6.07137 19.58 6.10409C19.5901 6.13681 19.5901 6.17182 19.58 6.20456C19.4147 6.72067 19.1221 7.18683 18.7291 7.56001C19.0836 7.47535 19.4295 7.3585 19.7627 7.21092C19.7963 7.19595 19.8339 7.19235 19.8697 7.20065C19.9056 7.20895 19.9377 7.2287 19.9613 7.25692C19.9849 7.28513 19.9986 7.32027 20.0005 7.357C20.0023 7.39373 19.9921 7.43006 19.9714 7.46047Z" fill="#090F1D"/>
</g>
<defs>
<clipPath id="clip0_1_314">
<rect width="24" height="24" fill="white" transform="translate(0.5)"/>
</clipPath>
</defs>
</svg>
